<svg xmlns="http://www.w3.org/2000/svg" width="24" height="24" viewBox="0 0 24 24"><defs><style>.a{fill:none;}</style></defs><g transform="translate(5.5 5.3)"><rect class="a" width="24" height="24" transform="translate(-5.5 -5.3)"/><g transform="translate(-5.5 -1.871)"><path d="M13.652,50.087l-.86-.177c-.051,0-.076-.025-.1-.076l-.43-.759a.143.143,0,0,0-.253,0l-.43.759a.349.349,0,0,1-.1.076l-.809.177a.139.139,0,0,0-.076.228l.607.632c.025.025.051.076.025.1l-.1.86c-.025.1.1.177.2.152l.784-.379a.113.113,0,0,1,.126,0l.784.379c.1.051.2-.025.2-.152l-.1-.86c0-.051,0-.076.025-.1l.607-.632A.16.16,0,0,0,13.652,50.087Z" transform="translate(-8.518 -40.579)"/><path d="M35.924,50.947c.025.025.051.076.025.1l-.1.86c-.025.1.1.177.2.152l.784-.379a.113.113,0,0,1,.126,0l.784.379c.1.051.2-.025.2-.152l-.1-.86c0-.051,0-.076.025-.1l.607-.632a.139.139,0,0,0-.076-.228l-.86-.177c-.051,0-.076-.025-.1-.076l-.43-.759a.143.143,0,0,0-.253,0l-.43.759a.349.349,0,0,1-.1.076l-.86.177a.139.139,0,0,0-.076.228Z" transform="translate(-26.972 -40.579)"/><path d="M63.3,50.087l-.86-.177c-.051,0-.076-.025-.1-.076l-.43-.759a.143.143,0,0,0-.253,0l-.43.759a.349.349,0,0,1-.1.076l-.86.177a.139.139,0,0,0-.076.228l.607.632c.025.025.051.076.025.1l-.1.86c-.025.1.1.177.2.152l.784-.379a.113.113,0,0,1,.126,0l.784.379c.1.051.2-.025.2-.152l-.1-.86c0-.051,0-.076.025-.1l.607-.632A.126.126,0,0,0,63.3,50.087Z" transform="translate(-45.575 -40.579)"/><path d="M24.451,17.015a2.071,2.071,0,0,0-.43,4.1v3.313a.8.8,0,0,1-.809.809h-.86v-2.1a1.468,1.468,0,0,0-1.467-1.467h-.253v-.784a2.455,2.455,0,0,0-2.453-2.453H17.092A5.189,5.189,0,0,0,12.439,15.7a5.16,5.16,0,0,0-4.653,2.731H6.673A2.455,2.455,0,0,0,4.22,20.884v.784H3.967A1.468,1.468,0,0,0,2.5,23.135v5.184a1.468,1.468,0,0,0,1.467,1.467H4.22v.759A2.455,2.455,0,0,0,6.673,33H18.179a2.455,2.455,0,0,0,2.453-2.453v-.759h.253a1.468,1.468,0,0,0,1.467-1.467v-2.1h.835a1.775,1.775,0,0,0,1.77-1.77V21.112A2.071,2.071,0,0,0,26.5,19.089,2.045,2.045,0,0,0,24.451,17.015Zm-12.012-.329a4.287,4.287,0,0,1,3.54,1.77H8.9A4.287,4.287,0,0,1,12.439,16.686ZM5.206,20.91A1.5,1.5,0,0,1,6.7,19.418H18.2A1.5,1.5,0,0,1,19.7,20.91v.784H5.206Zm9.888,1.745v6.2H9.783v-6.2ZM3.967,28.85a.507.507,0,0,1-.506-.506v-5.21a.507.507,0,0,1,.506-.506H8.8v6.2H3.967Zm15.7,1.745a1.5,1.5,0,0,1-1.492,1.492H6.673A1.5,1.5,0,0,1,5.181,30.6v-.759H19.646V30.6Zm1.72-2.251a.507.507,0,0,1-.506.506h-4.83v-6.2h4.83a.507.507,0,0,1,.506.506Zm3.06-8.143a1.113,1.113,0,1,1,1.113-1.113A1.123,1.123,0,0,1,24.451,20.2Z" transform="translate(-2.5 -15.7)"/></g></g></svg>